# xmcd
#
# Track frame offsets:
#	150
#	12276
#	35355
#	58531
#	75881
#	94761
#	114964
#	130725
#	153222
#	175011
#	194566
#	212472
#	228883
#	246310
#	260442
#	279311
#	302827
#	317256
#	336823
#
# Disc length: 4651 seconds
#
# Revision: 2
# Processed by: cddbd v1.5.2PL0 Copyright (c) Steve Scherf et al.
# Submitted via: EasyCDDAExtractor 11.1.0.1
#
DISCID=e8122913
DTITLE=Various Artist - Byron Bay Bluesfest 2005 - Disc 1
DYEAR=2005
DGENRE=Blues
TTITLE0=Jack Johnson - Fall Line
TTITLE1=Dave Matthews Band - Grey Street
TTITLE2=The Cat Empire - 1001
TTITLE3=Angelique Kidjo - Voodoo Child
TTITLE4=Michael Franti And Spearhead - Stay Human
TTITLE5=Sarah McLachlan - Angel
TTITLE6=Kasey Chambers - Hollywood
TTITLE7=Violent Femmes - Kiss Off
TTITLE8=George Thorogood And The Destroyers - Bad To The Bone
TTITLE9=The Waifs - Bridal Train
TTITLE10=The Frames - Fake
TTITLE11=Tex Perkins, Don Walker And Charlie Owen - Redheads, Gold Cards And L
TTITLE11=ong Black Limosines
TTITLE12=Ian Moss - Only Yesterday
TTITLE13=Steve Arvey - Cold Wind From Chicago
TTITLE14=Luka Bloom - Mary Watches Everything
TTITLE15=Los Mocosos - Genius
TTITLE16=Fred Eaglesmith - Hey Baby
TTITLE17=Chris Whitley - Big Sky Country
TTITLE18=Jeff Lang - The Road Is Not Your Only Friend
EXTD=
EXTT0=(Live with Kawika Kahlapo)
EXTT1=
EXTT2=
EXTT3=(Slight Return)
EXTT4=(Streets Are Alive Mix)
EXTT5=
EXTT6=
EXTT7=(Live)
EXTT8=
EXTT9=
EXTT10=
EXTT11=
EXTT12=
EXTT13=
EXTT14=
EXTT15=
EXTT16=
EXTT17=
EXTT18=
PLAYORDER=
